<svg width="15" height="15" viewBox="0 0 15 15" fill="none" xmlns="http://www.w3.org/2000/svg">
<path d="M4.21024 1.04431C4.66873 1.04431 5.49821 1.28787 6.84326 2.75853L7.50994 3.4871L8.16679 2.74658C9.10061 1.69344 10.0943 1.03912 10.7601 1.03912C11.6578 1.03912 12.3657 1.37978 13.0558 2.14419C13.7061 2.86394 14.0644 3.82153 14.0644 4.83988C14.0649 5.85875 13.707 6.81686 13.0497 7.54492C12.9963 7.60516 10.1696 10.99 7.80141 13.8269C7.69006 13.9448 7.56234 13.9619 7.4945 13.9619C7.4276 13.9619 7.30175 13.9453 7.1904 13.8305C6.61355 13.1181 2.43056 7.95569 1.94447 7.41665C1.2937 6.69586 0.935336 5.73775 0.935336 4.7194C0.935336 3.70106 1.2937 2.74398 1.94494 2.0232C2.57793 1.3211 3.319 1.04431 4.21024 1.04431ZM4.21024 0.00571233C3.09116 0.00571233 2.10494 0.377012 1.28388 1.28787C-0.42796 3.18279 -0.42796 6.2555 1.28388 8.15146C1.77278 8.69413 6.51577 14.5508 6.51577 14.5508C6.78619 14.851 7.14081 15 7.49497 15C7.84913 15 8.20235 14.851 8.47323 14.5508C8.47323 14.5508 13.6616 8.33478 13.7168 8.27298C15.4277 6.37649 15.4277 3.30327 13.7168 1.40834C12.8672 0.466851 11.918 0 10.7605 0C9.65454 0 8.4213 0.978882 7.50012 2.01748C6.54993 0.978882 5.35505 0.00571233 4.21071 0.00571233H4.21024Z" fill="#FEFEFE"/>
</svg>
