<svg width="49" height="49" viewBox="0 0 49 49" fill="none" xmlns="http://www.w3.org/2000/svg">
<path d="M24.205 34.8548C29.8527 34.8548 34.4313 30.2763 34.4313 24.6286C34.4313 18.9808 29.8527 14.4023 24.205 14.4023C18.5572 14.4023 13.9788 18.9808 13.9788 24.6286C13.9788 30.2763 18.5572 34.8548 24.205 34.8548Z" stroke="#FEFEFE" stroke-width="2" stroke-linecap="round" stroke-linejoin="round"/>
<path d="M1.19598 34.8544V14.4019C1.19598 7.3422 6.91905 1.61914 13.9788 1.61914H34.4313C41.4909 1.61914 47.2141 7.3422 47.2141 14.4019V34.8544C47.2141 41.9141 41.4909 47.6372 34.4313 47.6372H13.9788C6.91905 47.6372 1.19598 41.9141 1.19598 34.8544Z" stroke="#FEFEFE" stroke-width="2"/>
<path d="M38.2661 10.593L38.2918 10.5645" stroke="#FEFEFE" stroke-width="2" stroke-linecap="round" stroke-linejoin="round"/>
</svg>
