<svg width="140" height="147" viewBox="0 0 140 147" fill="none" xmlns="http://www.w3.org/2000/svg">
<path d="M71.0356 0.97538C63.4013 1.03242 56.2372 1.11227 55.1216 1.14649L53.0981 1.22634L53.9731 1.53433C59.2778 3.43934 63.7294 7.29497 67.656 13.3978C69.406 16.1242 69.1872 15.7135 78.2435 33.1095C80.5731 37.5811 82.4544 41.277 82.4216 41.3227C82.3997 41.3683 80.431 42.7144 78.0466 44.3114L73.7044 47.2202L76.745 47.2886C78.4185 47.3343 84.631 47.3913 90.5591 47.4369C96.4872 47.4712 102.295 47.5396 103.465 47.5738L105.598 47.6309L113.856 33.4061C118.395 25.5807 122.234 18.976 122.376 18.7364L122.628 18.2801L120.79 19.2839C113.922 23.0369 112.598 23.7556 112.576 23.7328C112.522 23.6871 105.915 10.9567 105.543 10.1924C103.378 5.72078 99.2653 2.38987 94.3325 1.12367C93.3481 0.861308 89.9794 0.849901 71.0356 0.97538Z" fill="white"/>
<path d="M46.8634 2.41291C44.6212 2.7095 42.1821 3.91867 40.3884 5.60693C39.8305 6.13166 23.8837 31.7409 24.0258 31.8777C24.0696 31.9348 30.8508 36.1326 39.0868 41.2202C47.804 46.6044 54.104 50.4373 54.1587 50.3802C54.2134 50.3232 57.8446 44.1747 62.2415 36.7144L70.2149 23.1626L69.3946 21.5428C64.0243 10.8314 56.718 3.63349 50.0899 2.50417C49.1384 2.34447 47.6618 2.29884 46.8634 2.41291Z" fill="white"/>
<path d="M111.329 57.7254C103.181 62.9157 96.4544 67.2162 96.3669 67.2961C96.2356 67.4329 97.3403 69.6231 103.498 81.5208L110.783 95.5859H114.261C116.886 95.5745 118.122 95.5289 119.325 95.3692C124.236 94.7532 127.9 93.6923 131.301 91.9356C133.336 90.8862 134.758 89.8823 136.081 88.5819C138.783 85.9354 140.172 82.3878 139.964 78.6462C139.822 76.1366 140.008 76.6043 134.09 64.5583C133.5 63.3606 131.684 59.619 130.033 56.2311C128.392 52.8431 126.85 49.6719 126.598 49.1928L126.15 48.3031L111.329 57.7254Z" fill="white"/>
<path d="M18.4807 48.7838C12.1917 48.8294 5.66199 48.9093 3.95574 48.9663L0.871369 49.0461L5.46512 52.7877C7.99168 54.8524 10.0589 56.5863 10.0589 56.6433C10.0589 56.7118 7.96981 60.9325 5.41043 66.0315C2.86199 71.1305 0.652619 75.682 0.499494 76.1497C-0.342693 78.7847 -0.0801934 81.6137 1.25418 84.4085C2.11824 86.188 3.12449 87.6025 4.69949 89.2566C8.76824 93.5343 12.8807 95.1883 20.8542 95.7587C22.6479 95.8841 28.1386 95.9412 28.3026 95.8271C28.3573 95.7929 31.1792 91.0475 34.5589 85.2754L40.7057 74.7922L41.5479 75.2599C42.0073 75.5223 44.0745 76.6858 46.1526 77.8608C48.2307 79.0357 49.937 79.9825 49.9589 79.9597C49.9807 79.9369 46.3604 72.8986 41.9198 64.309L33.837 48.7039L31.8792 48.6925C30.7964 48.6925 24.7698 48.7267 18.4807 48.7838Z" fill="white"/>
<path d="M81.4483 101.998L73.5952 116.77L76.5265 122.371C78.1452 125.462 81.678 132.204 84.3796 137.36L89.3015 146.748L89.3671 145.858C89.4108 145.379 89.4983 142.949 89.564 140.474C89.6296 137.999 89.7171 135.694 89.7499 135.364L89.8155 134.759L98.2483 134.782C105.719 134.793 106.801 134.77 107.6 134.611C112.084 133.675 116.383 130.618 118.439 126.911C118.778 126.295 136.355 92.0277 136.978 90.7615C137.142 90.4307 136.989 90.5333 136.037 91.3889C131.794 95.2103 127.43 97.0696 120.473 97.9936C119.226 98.1647 117.301 98.199 104.483 98.2332L89.903 98.2788V97.7313C89.8921 96.9328 89.378 87.3051 89.3343 87.2594C89.3124 87.2366 85.7687 93.8642 81.4483 101.998Z" fill="white"/>
<path d="M2.31485 90.054C2.3586 90.1452 6.86485 98.8489 12.3336 109.389C21.8602 127.743 22.3086 128.588 23.0414 129.409C25.1305 131.759 28.6305 133.538 32.7102 134.303C35.9367 134.919 35.8711 134.907 49.9039 134.964L62.9961 135.01V116.656V98.3014L56.193 98.2215C52.4414 98.1873 44.2602 98.1189 38.0039 98.0846C17.4523 97.9592 18.3274 97.9706 16.9492 97.7652C11.3602 96.8983 6.81016 94.6168 3.22266 90.8867C2.68673 90.3277 2.28204 89.9627 2.31485 90.054Z" fill="white"/>
</svg>
