<svg width="159" height="166" viewBox="0 0 159 166" fill="none" xmlns="http://www.w3.org/2000/svg">
<path d="M73.9981 44.8062H57.4624H39.345C31.753 41.2402 36.1817 36.7061 39.345 34.8848H54.5866H73.9981C81.5901 39.0259 77.1614 43.2245 73.9981 44.8062Z" stroke="white" stroke-width="6"/>
<path d="M144.576 70.9988V87.5344V105.652C141.01 113.244 136.476 108.815 134.655 105.652V90.4102V70.9988C138.796 63.4067 142.995 67.8354 144.576 70.9988Z" stroke="white" stroke-width="6"/>
<path d="M16.317 162.139H4.81396L5.38912 159.838L5.82048 157.537L6.39564 155.956L7.25837 154.086L8.55247 152.649L9.84656 151.354V149.773L10.1341 145.459L10.5655 138.557L11.1407 133.668L12.291 124.754L12.8661 117.277L13.4413 111.956L14.304 107.93L15.3105 104.623L16.4608 101.172L17.036 99.8782L17.4674 98.5841C19.6529 96.0534 18.378 93.5994 17.4674 92.6887L14.7354 87.5124L12.1472 80.3229L10.8531 76.1531L9.55899 69.9702L8.98383 64.0748L8.55247 59.0422L8.26489 54.1534L7.68974 52.1404V48.6895L7.40216 47.9705V46.245V40.3497V38.1929L7.11458 33.7354V31.0035L6.827 28.7029L6.53943 24.533V21.801L6.25185 18.0625L8.40868 18.9252L11.2844 19.5004L18.6177 19.9318L24.0816 20.3631H28.9704H33.8592L44.212 20.6507H59.4536H72.2508H83.1787H88.7865L97.7013 21.2258L101.44 21.9448V31.8662L92.6687 43.8006L84.9042 54.1534C82.0284 57.1442 80.7343 64.8896 80.4467 68.3885V121.446V137.695V147.76L80.7343 157.394L81.7408 159.407H80.4467H77.1396L69.375 159.119L58.5909 159.407H55.1399H53.4145L52.2642 159.838L46.6564 160.701L38.0291 161.707L32.1338 162.139H27.3888H22.7875H16.317Z" stroke="white" stroke-width="6"/>
<path d="M126.028 3.53906H104.172V32.5843L88.9306 53.4337C85.3646 56.3095 83.7063 64.0261 83.3229 67.525V82.1914V152.792C82.5177 160.154 87.301 161.706 89.7934 161.563H149.178C154.93 160.988 155.505 155.667 155.073 153.079V74.4268C155.649 63.6139 152.341 56.9805 150.616 55.0154L126.028 32.5843V3.53906Z" stroke="white" stroke-width="6"/>
</svg>
