<svg width="166" height="166" viewBox="0 0 166 166" fill="none" xmlns="http://www.w3.org/2000/svg">
<circle cx="83" cy="83" r="80.5" stroke="white" stroke-width="5"/>
<path d="M40.5651 48.2362C37.0309 62.9567 45.7683 71.0801 50.5788 73.3017L46.8973 89.3841L43.8048 104.163L41.7432 113.146L39.976 121.259L38.0616 130.822L36 140.384C40.5945 151.628 46.9463 146.035 49.5479 141.833L51.4623 129.518L53.6712 112.711L56.6164 93.0062L58.9726 74.7504C72.4027 74.4027 76.8402 58.9577 77.3801 51.2787L77.9692 44.9036L78.5582 38.9633L79 33.4575V28.6763V22.4461V17.375C76.526 12.9705 73.9441 15.25 72.9623 16.9404L72.6678 20.5626L71.4897 31.1393L69.8699 41.1366L68.1027 48.9605C66.4534 52.206 64.7648 50.023 64.1267 48.5258L64.5685 42.1508L65.3048 37.6593L65.8938 32.7331L66.4829 28.2416L67.0719 23.4603L67.5137 19.4035L67.9555 15.3467C66.1884 11.0581 63.4886 13.0768 62.3596 14.6222L59.4144 25.6337L56.3219 38.3838L54.5548 46.3525C52.5521 49.8298 51.4623 47.5116 51.1678 45.9179L51.6096 42.7303L52.3459 37.6593L53.524 31.7189L54.9966 24.4745L57.2055 15.3467C56.9699 8.50804 53.3767 11.2416 51.6096 13.4632L46.8973 25.6337L43.0685 38.3838L40.5651 48.2362Z" stroke="white" stroke-width="6"/>
<path d="M132 140.048L109.87 14.4986C102.765 5.64314 98.2708 11.8769 96.9119 16.1008L94 34.0156V59.0673L96.9119 78.4387C96.9119 85.1968 103.415 89.2168 106.667 90.382C111.326 90.9646 113.655 95.3826 114.238 97.5188L115.111 103.345L116.858 121.988L118.605 142.087C125.594 151.875 130.447 144.806 132 140.048Z" stroke="white" stroke-width="6"/>
<rect x="10.7324" y="134.363" width="176.207" height="21.0423" transform="rotate(-42 10.7324 134.363)" fill="#FF1054"/>
</svg>
