<svg width="55" height="45" viewBox="0 0 55 45" fill="none" xmlns="http://www.w3.org/2000/svg">
<path d="M53.2943 1.65245C53.2943 1.65245 48.5711 4.44276 45.9447 5.23365C44.5349 3.61277 42.6614 2.46393 40.5776 1.9425C38.4937 1.4211 36.3 1.55225 34.2931 2.31825C32.2863 3.08425 30.5628 4.44812 29.3565 6.2254C28.1499 8.00271 27.5184 10.1077 27.5472 12.2556V14.5963C23.4337 14.7029 19.3578 13.7906 15.6824 11.9406C12.007 10.0907 8.8461 7.36043 6.48129 3.9931C6.48129 3.9931 -2.88131 25.0591 18.1845 34.4217C13.364 37.6937 7.62156 39.3345 1.79999 39.103C22.8658 50.8062 48.613 39.103 48.613 12.1854C48.6109 11.5334 48.5482 10.883 48.4258 10.2426C50.8146 7.88675 53.2943 1.65245 53.2943 1.65245Z" stroke="#FEFEFE" stroke-width="2" stroke-linecap="round" stroke-linejoin="round"/>
</svg>
