<svg width="51" height="37" viewBox="0 0 51 37" fill="none" xmlns="http://www.w3.org/2000/svg">
<path d="M29.996 18.6281L21.596 23.4281V13.8281L29.996 18.6281Z" fill="#FEFEFE" stroke="#FEFEFE" stroke-width="2" stroke-linecap="round" stroke-linejoin="round"/>
<path d="M1.19598 20.3261V16.9299C1.19598 9.98105 1.19598 6.50667 3.36916 4.27114C5.54236 2.03561 8.96373 1.93884 15.8064 1.74531C19.0489 1.6536 22.3611 1.58789 25.196 1.58789C28.0309 1.58789 31.3431 1.6536 34.5855 1.74531C41.4281 1.93884 44.8496 2.03561 47.0228 4.27114C49.196 6.50667 49.196 9.98105 49.196 16.9299V20.3261C49.196 27.2749 49.196 30.7493 47.0228 32.9847C44.8496 35.2203 41.4284 35.317 34.5857 35.5107C31.3431 35.6024 28.0309 35.6681 25.196 35.6681C22.3611 35.6681 19.0488 35.6024 15.8062 35.5107C8.96361 35.317 5.54231 35.2203 3.36914 32.9847C1.19598 30.7493 1.19598 27.2749 1.19598 20.3261Z" stroke="#FEFEFE" stroke-width="2"/>
</svg>
